<svg width="32" height="32" viewBox="0 0 32 32" fill="none" xmlns="http://www.w3.org/2000/svg">
<path d="M17.6917 4.89176C18.0918 4.49182 18.6343 4.26715 19.2 4.26715C19.7657 4.26715 20.3082 4.49182 20.7083 4.89176L30.3083 14.4918C30.7082 14.8918 30.9329 15.4343 30.9329 16C30.9329 16.5657 30.7082 17.1082 30.3083 17.5083L20.7083 27.1083C20.3059 27.4969 19.767 27.7119 19.2077 27.7071C18.6483 27.7022 18.1132 27.4778 17.7177 27.0823C17.3222 26.6868 17.0978 26.1517 17.0929 25.5924C17.0881 25.033 17.3031 24.4941 17.6917 24.0918L23.4667 18.1334H3.19998C2.63419 18.1334 2.09157 17.9086 1.69149 17.5085C1.29141 17.1084 1.06665 16.5658 1.06665 16C1.06665 15.4342 1.29141 14.8916 1.69149 14.4915C2.09157 14.0915 2.63419 13.8667 3.19998 13.8667H23.4667L17.6917 7.9083C17.2918 7.50824 17.0671 6.96571 17.0671 6.40003C17.0671 5.83435 17.2918 5.29182 17.6917 4.89176Z" fill="black"/>
</svg>
