<svg width="32" height="32" viewBox="0 0 32 32" fill="none" xmlns="http://www.w3.org/2000/svg">
<path d="M22.6667 4.45333C24.6937 5.62358 26.3769 7.30677 27.5471 9.33371C28.7174 11.3606 29.3334 13.6599 29.3334 16.0004C29.3334 18.3409 28.7173 20.6402 27.547 22.6671C26.3768 24.694 24.6936 26.3772 22.6666 27.5474C20.6397 28.7177 18.3404 29.3337 15.9999 29.3337C13.6594 29.3336 11.3601 28.7175 9.33319 27.5472C7.30628 26.3769 5.62313 24.6937 4.45293 22.6667C3.28272 20.6398 2.66669 18.3405 2.66675 16L2.67341 15.568C2.74809 13.2653 3.41815 11.0213 4.61827 9.05466C5.81839 7.08803 7.50762 5.46594 9.52127 4.34651C11.5349 3.22708 13.8043 2.64853 16.1081 2.66725C18.4119 2.68597 20.6716 3.30133 22.6667 4.45333ZM16.0001 8C15.6465 8 15.3073 8.14048 15.0573 8.39052C14.8072 8.64057 14.6667 8.97971 14.6667 9.33333C13.6059 9.33333 12.5885 9.75476 11.8383 10.5049C11.0882 11.2551 10.6667 12.2725 10.6667 13.3333C10.6667 14.3942 11.0882 15.4116 11.8383 16.1618C12.5885 16.9119 13.6059 17.3333 14.6667 17.3333V20C14.4456 20.0122 14.2249 19.9703 14.0236 19.8778C13.8224 19.7853 13.6468 19.6451 13.5121 19.4693L13.4214 19.3347C13.239 19.0405 12.9493 18.8287 12.6136 18.7443C12.2779 18.6598 11.9225 18.7092 11.6226 18.882C11.3226 19.0549 11.1017 19.3376 11.0064 19.6704C10.9111 20.0032 10.949 20.36 11.1121 20.6653C11.4524 21.2556 11.9378 21.7491 12.5224 22.0991C13.1069 22.4491 13.7711 22.644 14.4521 22.6653H14.6667C14.6665 22.9921 14.7862 23.3077 15.0033 23.552C15.2203 23.7963 15.5195 23.9524 15.8441 23.9907L16.0001 24C16.3537 24 16.6928 23.8595 16.9429 23.6095C17.1929 23.3594 17.3334 23.0203 17.3334 22.6667L17.5681 22.66C18.6076 22.5999 19.5826 22.1369 20.2861 21.3693C20.9896 20.6017 21.3661 19.59 21.3355 18.5493C21.305 17.5085 20.8698 16.5207 20.1225 15.7957C19.3752 15.0707 18.3746 14.6657 17.3334 14.6667V12C17.8107 11.984 18.2281 12.1867 18.4881 12.5307L18.5787 12.6653C18.7612 12.9595 19.0509 13.1712 19.3866 13.2557C19.7223 13.3402 20.0777 13.2908 20.3776 13.118C20.6775 12.9451 20.8985 12.6624 20.9938 12.3296C21.089 11.9968 21.0511 11.64 20.8881 11.3347C20.5479 10.7442 20.0626 10.2504 19.478 9.90017C18.8935 9.54991 18.2292 9.3548 17.5481 9.33333H17.3334C17.3334 8.97971 17.1929 8.64057 16.9429 8.39052C16.6928 8.14048 16.3537 8 16.0001 8ZM17.3334 17.3333C17.687 17.3333 18.0262 17.4738 18.2762 17.7239C18.5263 17.9739 18.6667 18.313 18.6667 18.6667C18.6667 19.0203 18.5263 19.3594 18.2762 19.6095C18.0262 19.8595 17.687 20 17.3334 20V17.3333ZM14.6667 12V14.6667C14.3131 14.6667 13.974 14.5262 13.7239 14.2761C13.4739 14.0261 13.3334 13.687 13.3334 13.3333C13.3334 12.9797 13.4739 12.6406 13.7239 12.3905C13.974 12.1405 14.3131 12 14.6667 12Z" fill="#FF9900"/>
</svg>
